<svg width="156" height="51" viewBox="0 0 156 51" fill="none" xmlns="http://www.w3.org/2000/svg">
<path d="M33.1552 4.00562C36.6702 4.00562 39.5934 4.43948 41.9249 5.30718C44.2565 6.15718 46.0051 7.43219 47.1709 9.13219C48.3543 10.8322 48.946 12.9483 48.946 15.4806C48.946 17.0566 48.681 18.491 48.1512 19.7838C47.6212 21.0765 46.8617 22.2363 45.8726 23.2634C44.9011 24.2728 43.7354 25.1582 42.3754 25.9197L53.662 42.84H41.7925L33.5791 28.7088H30.9297V42.84H20.4644V4.00562H33.1552ZM32.9962 11.9478H30.9297V20.8197H32.8903C34.4976 20.8197 35.8135 20.4655 36.838 19.7572C37.8624 19.0488 38.3746 17.7827 38.3746 15.9588C38.3746 14.7015 37.9507 13.7187 37.1029 13.0103C36.2551 12.3019 34.8862 11.9478 32.9962 11.9478Z" fill="white" fill-opacity="0.5"/>
<path d="M16.8769 4.00562C20.3919 4.00562 23.3151 4.43948 25.6466 5.30718C27.9782 6.15718 29.7268 7.43219 30.8926 9.13219C32.076 10.8322 32.6677 12.9483 32.6677 15.4806C32.6677 17.0566 32.4027 18.491 31.8729 19.7838C31.3429 21.0765 30.5834 22.2363 29.5943 23.2634C28.6228 24.2728 27.4571 25.1582 26.0971 25.9197L37.3837 42.84H25.5142L17.3008 28.7088H14.6514V42.84H4.18604V4.00562H16.8769ZM16.7179 11.9478H14.6514V20.8197H16.612C18.2193 20.8197 19.5352 20.4655 20.5597 19.7572C21.5841 19.0488 22.0963 17.7827 22.0963 15.9588C22.0963 14.7015 21.6724 13.7187 20.8246 13.0103C19.9768 12.3019 18.6079 11.9478 16.7179 11.9478Z" fill="#FFD43B"/>
<path d="M63.9387 42.8677C62.3346 42.8677 60.9509 42.5127 59.7875 41.8027C58.6314 41.0856 57.739 40.0859 57.1104 38.8036C56.4889 37.5141 56.1782 36.0145 56.1782 34.3049C56.1782 32.5952 56.4889 31.0884 57.1104 29.7844C57.739 28.4732 58.6133 27.4518 59.7333 26.7201C60.8605 25.9812 62.1757 25.6117 63.6786 25.6117C64.5457 25.6117 65.402 25.7566 66.2474 26.0463C67.0927 26.3362 67.8626 26.807 68.5557 27.459C69.2496 28.1037 69.8024 28.9586 70.2141 30.0235C70.6265 31.0884 70.832 32.3996 70.832 33.9572V35.0438H57.9991V32.827H68.2308C68.2308 31.8853 68.043 31.0449 67.6672 30.3061C67.2989 29.5671 66.7712 28.9839 66.0848 28.5566C65.4056 28.1291 64.6035 27.9154 63.6786 27.9154C62.6597 27.9154 61.7782 28.169 61.034 28.676C60.297 29.1759 59.7297 29.8279 59.3323 30.632C58.9349 31.4361 58.7361 32.2982 58.7361 33.2182V34.6961C58.7361 35.9566 58.9529 37.0251 59.3865 37.9017C59.8273 38.771 60.4378 39.4338 61.2182 39.8903C61.9987 40.3394 62.9055 40.564 63.9387 40.564C64.6108 40.564 65.2177 40.4698 65.7597 40.2815C66.3088 40.0859 66.7821 39.7961 67.1795 39.4121C67.577 39.0209 67.8843 38.5356 68.1006 37.9561L70.5722 38.6515C70.3118 39.4918 69.875 40.2307 69.2604 40.8682C68.6466 41.4985 67.8877 41.9911 66.9842 42.3461C66.0812 42.6938 65.0659 42.8677 63.9387 42.8677ZM81.7031 42.8677C80.0991 42.8677 78.7154 42.5127 77.5522 41.8027C76.3958 41.0856 75.5038 40.0859 74.8751 38.8036C74.2538 37.5141 73.9432 36.0145 73.9432 34.3049C73.9432 32.5952 74.2538 31.0884 74.8751 29.7844C75.5038 28.4732 76.3781 27.4518 77.4979 26.7201C78.6252 25.9812 79.9403 25.6117 81.4434 25.6117C82.3102 25.6117 83.1668 25.7566 84.0119 26.0463C84.8577 26.3362 85.6269 26.807 86.3207 27.459C87.0146 28.1037 87.5674 28.9586 87.9791 30.0235C88.3908 31.0884 88.597 32.3996 88.597 33.9572V35.0438H75.7636V32.827H85.9952C85.9952 31.8853 85.8073 31.0449 85.4315 30.3061C85.0632 29.5671 84.5356 28.9839 83.8492 28.5566C83.1702 28.1291 82.3678 27.9154 81.4434 27.9154C80.4246 27.9154 79.5429 28.169 78.7988 28.676C78.0616 29.1759 77.4945 29.8279 77.0971 30.632C76.6996 31.4361 76.5009 32.2982 76.5009 33.2182V34.6961C76.5009 35.9566 76.7172 37.0251 77.1513 37.9017C77.5922 38.771 78.2026 39.4338 78.9826 39.8903C79.7633 40.3394 80.6702 40.564 81.7031 40.564C82.3753 40.564 82.9823 40.4698 83.5243 40.2815C84.0737 40.0859 84.5464 39.7961 84.9439 39.4121C85.3413 39.0209 85.6486 38.5356 85.8656 37.9561L88.3365 38.6515C88.0768 39.4918 87.6393 40.2307 87.0255 40.8682C86.411 41.4985 85.652 41.9911 84.7492 42.3461C83.8458 42.6938 82.8304 42.8677 81.7031 42.8677ZM95.0459 20.2654V42.5199H92.4882V20.2654H95.0459ZM99.7306 42.5199V25.829H102.202V28.35H102.375C102.679 27.5242 103.228 26.8541 104.023 26.3398C104.818 25.8254 105.714 25.5682 106.711 25.5682C106.899 25.5682 107.134 25.5718 107.415 25.5791C107.697 25.5864 107.91 25.5972 108.055 25.6117V28.2197C107.968 28.1979 107.769 28.1654 107.459 28.1218C107.156 28.0712 106.834 28.0458 106.494 28.0458C105.685 28.0458 104.962 28.216 104.327 28.5566C103.698 28.8898 103.199 29.3534 102.831 29.9474C102.469 30.5342 102.289 31.2043 102.289 31.9577V42.5199H99.7306ZM115.986 42.9112C114.931 42.9112 113.973 42.7119 113.114 42.3135C112.254 41.9078 111.571 41.3246 111.065 40.564C110.56 39.7961 110.307 38.8688 110.307 37.7822C110.307 36.8259 110.495 36.0508 110.87 35.4567C111.246 34.8555 111.748 34.3846 112.377 34.0441C113.006 33.7036 113.699 33.45 114.458 33.2834C115.223 33.1096 115.993 32.9719 116.767 32.8705C117.778 32.7401 118.599 32.6423 119.227 32.5771C119.863 32.5047 120.325 32.3852 120.614 32.2186C120.911 32.0519 121.059 31.7621 121.059 31.3492V31.2623C121.059 30.1901 120.766 29.357 120.181 28.763C119.602 28.169 118.725 27.8719 117.547 27.8719C116.326 27.8719 115.369 28.14 114.675 28.676C113.981 29.2121 113.493 29.7844 113.211 30.393L110.784 29.5236C111.217 28.5094 111.795 27.7198 112.518 27.1547C113.248 26.5824 114.043 26.184 114.902 25.9594C115.769 25.7276 116.622 25.6117 117.46 25.6117C117.995 25.6117 118.609 25.6769 119.303 25.8073C120.004 25.9305 120.679 26.1876 121.33 26.5788C121.987 26.97 122.532 27.5604 122.966 28.35C123.4 29.1397 123.616 30.1974 123.616 31.5231V42.5199H121.059V40.2597H120.928C120.755 40.6219 120.466 41.0095 120.062 41.4224C119.657 41.8354 119.119 42.1867 118.447 42.4765C117.774 42.7662 116.954 42.9112 115.986 42.9112ZM116.377 40.6074C117.388 40.6074 118.24 40.4082 118.934 40.0098C119.635 39.6114 120.163 39.097 120.517 38.4667C120.878 37.8365 121.059 37.1737 121.059 36.4782V34.1311C120.95 34.2614 120.712 34.381 120.343 34.4896C119.982 34.591 119.563 34.6816 119.086 34.7613C118.616 34.8337 118.158 34.8989 117.709 34.9568C117.268 35.0076 116.911 35.051 116.636 35.0873C115.972 35.1742 115.35 35.3155 114.772 35.511C114.201 35.6994 113.739 35.9856 113.385 36.3695C113.038 36.7462 112.864 37.2606 112.864 37.9125C112.864 38.8036 113.193 39.4774 113.851 39.9337C114.515 40.3828 115.358 40.6074 116.377 40.6074ZM135.526 25.829V28.0024H126.898V25.829H135.526ZM129.413 21.8302H131.97V37.7387C131.97 38.4631 132.076 39.0065 132.284 39.3687C132.501 39.7236 132.776 39.9627 133.109 40.0859C133.448 40.2018 133.806 40.2597 134.182 40.2597C134.464 40.2597 134.694 40.2452 134.875 40.2162C135.056 40.18 135.2 40.151 135.309 40.1293L135.829 42.433C135.655 42.4982 135.413 42.5634 135.103 42.6286C134.792 42.701 134.399 42.7373 133.921 42.7373C133.199 42.7373 132.491 42.5816 131.797 42.27C131.11 41.9585 130.54 41.484 130.085 40.8465C129.637 40.209 129.413 39.4049 129.413 38.4342V21.8302ZM146.175 42.8677C144.57 42.8677 143.187 42.5127 142.024 41.8027C140.867 41.0856 139.975 40.0859 139.347 38.8036C138.725 37.5141 138.414 36.0145 138.414 34.3049C138.414 32.5952 138.725 31.0884 139.347 29.7844C139.975 28.4732 140.849 27.4518 141.969 26.7201C143.097 25.9812 144.412 25.6117 145.914 25.6117C146.782 25.6117 147.638 25.7566 148.483 26.0463C149.328 26.3362 150.098 26.807 150.792 27.459C151.485 28.1037 152.038 28.9586 152.451 30.0235C152.862 31.0884 153.068 32.3996 153.068 33.9572V35.0438H140.235V32.827H150.467C150.467 31.8853 150.279 31.0449 149.903 30.3061C149.535 29.5671 149.007 28.9839 148.321 28.5566C147.642 28.1291 146.839 27.9154 145.914 27.9154C144.895 27.9154 144.014 28.169 143.27 28.676C142.533 29.1759 141.965 29.8279 141.568 30.632C141.171 31.4361 140.972 32.2982 140.972 33.2182V34.6961C140.972 35.9566 141.189 37.0251 141.622 37.9017C142.063 38.771 142.673 39.4338 143.454 39.8903C144.235 40.3394 145.142 40.564 146.175 40.564C146.847 40.564 147.454 40.4698 147.996 40.2815C148.544 40.0859 149.018 39.7961 149.415 39.4121C149.813 39.0209 150.12 38.5356 150.336 37.9561L152.808 38.6515C152.547 39.4918 152.111 40.2307 151.496 40.8682C150.882 41.4985 150.123 41.9911 149.22 42.3461C148.317 42.6938 147.302 42.8677 146.175 42.8677Z" fill="#878788"/>
</svg>
